HIERARCHY
ROOT pelvis
{
  OFFSET 0 100 0
  CHANNELS 6 Xposition Yposition Zposition Zrotation Xrotation Yrotation
  JOINT pelvis_right_femur
  {
    OFFSET -10.78128 -3.44521 -0.5502486
    CHANNELS 3 Zrotation Xrotation Yrotation
    JOINT right_femur_tibia
    {
      OFFSET -0.8047443 -44.0398 -0.1307829
      CHANNELS 3 Zrotation Xrotation Yrotation
      JOINT right_tibia_foot
      {
        OFFSET 3.006224 -47.83518 -5
        CHANNELS 3 Zrotation Xrotation Yrotation
        End Site
        {
          OFFSET 0 -5 15
        }
      }
    }
  }
  JOINT pelvis_left_femur
  {
    OFFSET 10.78128 -3.44521 -0.5502486
    CHANNELS 3 Zrotation Xrotation Yrotation
    JOINT left_femur_tibia
    {
      OFFSET 0.8047443 -44.0398 -0.1307829
      CHANNELS 3 Zrotation Xrotation Yrotation
      JOINT left_tibia_foot
      {
        OFFSET -4.370144 -48.10324 -4.275266
        CHANNELS 3 Zrotation Xrotation Yrotation
        End Site
        {
          OFFSET 0 -5 15
        }
      }
    }
  }
  JOINT pelvis_spine1
  {
    OFFSET 0 6.468898 -3.129235
    CHANNELS 3 Zrotation Xrotation Yrotation
    JOINT spine1
    {
      OFFSET 0 23.15396 4.99043
      CHANNELS 3 Zrotation Xrotation Yrotation
      JOINT spine2
      {
        OFFSET 0 20.79997 -5.064912
        CHANNELS 3 Zrotation Xrotation Yrotation
        JOINT neck
        {
          OFFSET 0 14.38658 9.616178
          CHANNELS 3 Zrotation Xrotation Yrotation
          End Site
          {
            OFFSET 0 20 0
          }
        }
      }
      JOINT right_manubrium
      {
        OFFSET -5.722621 16.35077 3.967754
        CHANNELS 3 Zrotation Xrotation Yrotation
        JOINT right_clavicle
        {
          OFFSET -13.16364 1.694482 -4.693211
          CHANNELS 3 Zrotation Xrotation Yrotation
          JOINT right_humerus
          {
            OFFSET -28.5034 -0.3100689 -2.792744
            CHANNELS 3 Zrotation Xrotation Yrotation
            JOINT right_radius
            {
              OFFSET -25.15693 0.02248979 -1.271978
              CHANNELS 3 Zrotation Xrotation Yrotation
              End Site
              {
                OFFSET -15 0 0
              }
            }
          }
        }
      }
      JOINT left_manubrium
      {
        OFFSET 5.722621 16.35077 3.967754
        CHANNELS 3 Zrotation Xrotation Yrotation
        JOINT left_clavicle
        {
          OFFSET 13.16364 1.694482 -4.693211
          CHANNELS 3 Zrotation Xrotation Yrotation
          JOINT left_humerus
          {
            OFFSET 29.39168 -1.063119 -2.237045
            CHANNELS 3 Zrotation Xrotation Yrotation
            JOINT left_radius
            {
              OFFSET 24.59957 -0.9528479 0.9047498
              CHANNELS 3 Zrotation Xrotation Yrotation
              End Site
              {
                OFFSET 15 -0 -0
              }
            }
          }
        }
      }
    }
  }
}
MOTION
Frames: 11
Frame Time: 0.0416666666667
1475.276 104.492 2697.718 7.162381 -3.793716 53.78261 0.1801458 -16.88375 2.710324 -0 39.55292 -0 2.006256 -4.544462 -9.190912 -5.129204 8.362896 -7.940229 -0 14.66915 -0 -3.339857 -16.12374 14.56526 -0.08395337 0.2726479 2.792292 2.830211 8.514508 -8.641217 0.674304 20.88548 7.869385 4.402129 -23.33557 7.233228 6.183345 -14.42866 11.51009 88.57719 36.09082 -23.62953 -0 0 8.162063 -14.43756 14.86208 8.241428 5.45987 -21.67192 -3.214674 -89.27903 29.85385 16.53776 0 0 -24.77286 -1.41831 12.80745 18.72021
1480.072 103.6312 2700.985 6.797455 -3.16405 54.55987 -0.1678524 -20.82353 2.212854 -0 29.94897 -0 1.569399 -5.589955 -9.694716 -5.254415 11.89735 -7.859072 -0 13.88556 -0 -3.836193 -17.75232 13.74933 0.2403292 -0.07663846 2.98188 2.607983 8.303468 -8.883762 0.7757969 20.48696 8.053307 4.734292 -23.67096 7.488602 6.278928 -14.53306 11.17833 89.2151 36.60087 -24.97813 -0 0 8.483228 -12.22758 14.28749 6.643298 6.635691 -22.47063 -2.763237 -89.79934 31.16971 16.75377 0 0 -26.70057 -0.8156516 13.42081 18.65705
1485.096 102.3858 2704.583 6.472559 -2.481318 55.19931 -0.3069278 -23.36966 1.998495 -0 20.87936 -0 1.39285 -5.587385 -10.32877 -5.355504 15.00994 -7.461648 -0 14.8751 -0 -4.254503 -18.92067 13.16495 0.367577 -0.2912519 3.199058 2.395635 8.209059 -8.929903 0.8498427 20.33044 8.163123 4.919045 -23.75246 7.664863 6.323272 -14.7173 10.9886 89.44597 36.99867 -25.49638 -0 0 8.900502 -11.13178 13.96796 5.770488 7.256581 -22.84787 -2.509723 -90.263 31.98442 17.17222 0 0 -27.62011 -0.5385291 13.82024 18.69273
1490.468 101.1678 2708.62 6.214951 -2.097162 55.72431 0.2161539 -24.29877 2.386287 -0 15.11432 -0 1.652977 -4.707941 -11.0107 -5.217441 17.59059 -6.872393 -0 18.26132 -0 -5.028444 -18.91603 12.7372 0.4153709 -0.3182744 3.276988 2.227959 8.206862 -8.826207 0.8805079 20.42374 8.198216 4.938413 -23.64308 7.74343 6.232506 -14.8508 10.9193 89.62128 37.17838 -25.48937 -0 0 9.085643 -11.22815 14.02815 5.636781 7.298268 -22.84721 -2.501577 -90.5175 32.27907 17.53928 0 0 -27.56572 -0.6670094 14.03847 18.93962
1496.13 100.3164 2713.043 6.122426 -2.263194 56.11243 1.290634 -23.61131 3.285681 -0 14.08596 -0 1.73928 -4.277219 -11.50687 -4.729473 19.20727 -6.662484 -0 23.50992 -0 -6.317629 -17.53737 12.46334 0.434821 -0.253969 3.287101 2.039537 8.224956 -8.607506 0.8989708 20.6863 8.21007 4.877825 -23.44057 7.809222 6.030104 -15.01799 10.89082 89.80854 37.25804 -25.18133 -0 0 9.248443 -11.91514 14.24391 5.832564 7.022605 -22.61229 -2.613256 -90.81931 32.48328 18.07691 0 0 -26.92796 -1.148358 14.26534 19.46809
1501.893 99.92459 2717.704 6.433805 -2.987345 56.32821 2.394429 -21.73334 4.11061 -0 16.56697 -0 0.8158188 -5.222038 -11.70481 -4.01496 19.7768 -7.071917 -0 29.38406 -0 -7.509176 -15.43963 12.58056 0.3897968 -0.1413616 3.228382 1.960679 8.241334 -8.405014 0.8947803 20.9619 8.188588 4.769268 -23.28568 7.827551 5.847024 -15.13594 10.92859 89.82805 37.17955 -24.70318 -0 0 9.336425 -12.73758 14.44101 6.242131 6.575827 -22.25561 -2.769498 -91.02356 32.49958 18.51249 0 0 -26.05632 -1.727041 14.36122 19.98104
1507.592 100.0483 2722.469 7.195846 -4.175066 56.29695 3.49645 -18.75756 4.670238 -0 20.6187 -0 -1.027622 -7.028637 -11.68066 -3.288852 19.17456 -7.66253 -0 36.22708 -0 -7.998191 -13.0362 13.53953 0.2577361 0.02483495 3.099748 2.057603 8.286702 -8.271063 0.8550623 21.19392 8.114004 4.60307 -23.17804 7.752973 5.744761 -15.12764 11.06318 89.5991 36.93532 -24.0798 -0 0 9.234502 -13.71882 14.68079 6.932987 5.984338 -21.82443 -2.969136 -90.9252 32.09879 18.5922 0 0 -25.05479 -2.210131 14.19627 20.24853
1513.101 100.7317 2727.159 8.115874 -5.420768 55.93621 4.553408 -14.5557 5.203929 -0 23.92406 -0 -2.611092 -8.726474 -11.45233 -2.841485 16.56189 -7.862676 -0 44.10275 -0 -7.746175 -10.67039 15.37308 0.05768779 0.1972327 2.978423 2.222864 8.339538 -8.156999 0.8025813 21.40488 8.016734 4.423032 -23.08447 7.638109 5.703929 -15.09667 11.24104 89.17369 36.64683 -23.32709 -0 0 9.134578 -14.70411 14.87381 7.722168 5.344333 -21.35056 -3.174222 -90.74844 31.55734 18.58971 0 0 -24.00372 -2.648105 13.91829 20.40066
1518.375 101.8663 2731.564 8.645622 -5.996495 55.23546 5.191066 -9.45099 6.048622 -0 24.11802 -0 -2.332148 -9.398307 -10.80972 -2.72748 11.19132 -7.363577 -0 51.36315 -0 -7.447993 -8.712931 17.04012 -0.197971 0.34313 2.891388 2.388533 8.355653 -8.023919 0.751606 21.62934 7.918541 4.257299 -23.01637 7.52735 5.691173 -15.12898 11.41892 88.61086 36.37623 -22.45856 -0 0 9.180461 -15.52437 14.89457 8.458603 4.698871 -20.8246 -3.358747 -90.70828 31.16038 18.75889 0 0 -22.91643 -3.167992 13.66201 20.61884
1523.464 103.1521 2735.591 8.518696 -5.654844 54.29217 5.166847 -4.302524 7.034814 -0 21.31321 -0 -0.2940952 -9.148089 -9.516456 -2.582494 3.554532 -6.439944 -0 56.08693 -0 -7.645573 -7.301802 17.58468 -0.5071141 0.4551007 2.830249 2.537136 8.310753 -7.853938 0.7044173 21.89816 7.826108 4.102613 -22.98071 7.442659 5.673588 -15.25504 11.57985 87.96821 36.15479 -21.48911 -0 0 9.39517 -16.15587 14.7193 9.10062 4.044669 -20.22859 -3.516954 -90.87327 31.01158 19.18614 0 0 -21.77047 -3.836713 13.48268 20.98455
1528.391 104.2457 2739.286 7.951845 -4.904574 53.27827 4.739419 0.2527018 7.240607 -0 17.74398 -0 1.167253 -9.172236 -7.558057 -2.118717 -4.853559 -5.650849 -0 57.34025 -0 -8.094755 -6.652333 17.42195 -0.8859475 0.5410535 2.785831 2.691613 8.216464 -7.653647 0.6534559 22.2134 7.731449 3.940632 -22.96356 7.372927 5.651401 -15.45271 11.73665 87.23923 35.98739 -20.41125 -0 0 9.719337 -16.69107 14.4061 9.709077 3.36581 -19.56156 -3.656724 -91.1583 31.00181 19.77565 0 0 -20.55923 -4.59919 13.33103 21.41363
